<svg xmlns="http://www.w3.org/2000/svg" width="9" height="13" viewBox="0 0 9 13"><g fill="none" fill-rule="evenodd"><path fill="#FFF" d="M.79 6.722l3.574 5.957 3.565-5.942a4.229 4.229 0 0 0 .734-2.384c0-.706-.174-1.398-.498-2.013A4.175 4.175 0 0 0 6.77.794C6.111.36 5.299.1 4.364.1S2.617.36 1.958.794A4.175 4.175 0 0 0 .562 2.34a4.328 4.328 0 0 0-.497 2.013 4.228 4.228 0 0 0 .725 2.37z"/><path fill="#004A87" d="M5.337 4.576a1.357 1.357 0 0 0 0-1.932 1.377 1.377 0 0 0-.973-.4c-.38 0-.724.153-.973.4a1.357 1.357 0 0 0 0 1.932c.249.247.593.4.973.4s.724-.153.973-.4z"/></g></svg>