<svg xmlns="http://www.w3.org/2000/svg" width="13" height="8" viewBox="0 0 13 8"><g fill="none" fill-rule="evenodd"><path fill="#004A87" fill-rule="nonzero" d="M1.117.685h11.446c.07 0 .126.054.126.12v7.01a.124.124 0 0 1-.126.12H1.117a.124.124 0 0 1-.126-.12V.804c0-.066.056-.12.126-.12zm11.32.242H1.243v6.766h11.194V.927z"/><path fill="#004A87" fill-rule="nonzero" d="M12.636.905L6.918 5.248a.13.13 0 0 1-.161-.003L1.039.9l.078-.095L1.039.9a.118.118 0 0 1-.02-.17.127.127 0 0 1 .098-.046h11.446c.07 0 .126.054.126.12a.12.12 0 0 1-.053.1zM6.84 4.999L12.2.927H1.48L6.84 5z"/><path fill="#FFF" d="M12.437 1.056l-5.52 4.192a.13.13 0 0 1-.16-.003l-5.514-4.19v6.638h11.194V1.056z"/><path fill="#FFF" d="M1.48.927l5.36 4.072L12.2.927z"/></g></svg>